<svg width="123" height="40" viewBox="0 0 123 40" fill="none" xmlns="http://www.w3.org/2000/svg">
<g clip-path="url(#clip0)">
<path d="M15.0923 0.00387573H16.1821C19.9655 0.0861234 23.6872 1.6077 26.3602 4.30131C25.3733 5.30885 24.3657 6.27526 23.3993 7.28279C21.8983 5.9257 20.0889 4.87705 18.1149 4.50693C15.1951 3.89008 12.0491 4.44525 9.60228 6.11076C6.92923 7.85852 5.11978 10.8194 4.72911 13.986C4.29731 17.1114 5.18147 20.4013 7.2171 22.8276C9.17048 25.1922 12.152 26.6727 15.2362 26.7755C18.1149 26.94 21.117 26.0558 23.2143 24.0407C24.8592 22.622 25.62 20.463 25.8668 18.3657C22.4535 18.3657 19.0402 18.3862 15.6269 18.3657V14.1299H29.9997C30.7399 18.6741 29.6707 23.794 26.2163 27.0428C23.9134 29.3457 20.7263 30.7028 17.4775 30.9701C14.3315 31.2785 11.0827 30.6822 8.28632 29.1607C4.93473 27.3718 2.26168 24.3492 0.945714 20.792C-0.288001 17.5226 -0.308563 13.8215 0.842905 10.5316C1.89156 7.52953 3.90663 4.87705 6.49743 3.02648C8.98542 1.19647 12.008 0.188933 15.0923 0.00387573Z" fill="#CACAD2"/>
<path d="M97.5457 1.07275H101.946V30.4352C100.486 30.4352 99.0055 30.4557 97.5457 30.4146C97.5662 20.6477 97.5457 10.8602 97.5457 1.07275Z" fill="#CACAD2"/>
<path d="M39.7873 11.2509C42.5015 10.7369 45.4419 11.3126 47.6831 12.937C49.7187 14.3763 51.1375 16.6381 51.5693 19.1056C52.1245 21.9637 51.4254 25.0891 49.5748 27.3509C47.5803 29.88 44.311 31.2371 41.1239 31.0315C38.2041 30.867 35.3665 29.4071 33.6393 27.0219C31.6859 24.39 31.213 20.7711 32.2822 17.6868C33.3514 14.3763 36.374 11.8472 39.7873 11.2509ZM40.4042 15.1577C39.2938 15.4455 38.2657 16.083 37.5255 16.9877C35.531 19.3729 35.6544 23.2591 37.8545 25.4798C39.1088 26.7546 41.0005 27.3509 42.7482 27.0013C44.3726 26.7135 45.7914 25.6237 46.5728 24.1844C47.9299 21.7375 47.5392 18.3653 45.4624 16.4531C44.1259 15.2194 42.1725 14.7053 40.4042 15.1577Z" fill="#CACAD2"/>
<path d="M61.5829 11.2509C64.6877 10.6546 68.0804 11.5182 70.4039 13.6978C74.1873 17.0905 74.5985 23.4441 71.3703 27.3509C69.4169 29.8183 66.2504 31.1754 63.125 31.0314C60.1435 30.9492 57.2032 29.4687 55.4349 27.0219C53.4403 24.3283 53.0085 20.6271 54.1394 17.4812C55.2704 14.2735 58.2313 11.8266 61.5829 11.2509ZM62.1997 15.1577C61.0894 15.4455 60.0613 16.0829 59.321 16.9671C57.3471 19.3112 57.4294 23.1357 59.5472 25.3769C60.8015 26.7134 62.7549 27.3714 64.5643 27.0013C66.1682 26.6929 67.6075 25.6237 68.3888 24.1843C69.7254 21.7169 69.3347 18.3448 67.2374 16.4325C65.9009 15.1988 63.9475 14.7053 62.1997 15.1577Z" fill="#CACAD2"/>
<path d="M80.068 12.4435C82.4326 10.963 85.5786 10.5518 88.1283 11.8266C88.9302 12.1762 89.5882 12.7725 90.2256 13.3688C90.2461 12.8136 90.2256 12.2379 90.2461 11.6621C91.6238 11.6827 93.0014 11.6621 94.3997 11.6827V29.8183C94.3791 32.553 93.68 35.4523 91.706 37.4468C89.547 39.6469 86.2366 40.3254 83.2551 39.8731C80.068 39.4002 77.2921 37.0767 76.0584 34.1363C77.2921 33.54 78.5875 33.0671 79.8624 32.5119C80.582 34.198 82.0419 35.6373 83.8719 35.9663C85.702 36.2953 87.8198 35.8429 89.0124 34.3214C90.2873 32.7587 90.2873 30.6202 90.2256 28.708C89.2797 29.6333 88.19 30.4557 86.874 30.7642C84.0159 31.5661 80.8699 30.5791 78.6698 28.6463C76.4491 26.7135 75.1331 23.732 75.2565 20.7711C75.3182 17.4195 77.2099 14.1913 80.068 12.4435ZM84.3243 15.0754C83.07 15.281 81.898 15.9801 81.0961 16.9465C79.1633 19.2495 79.1633 22.9301 81.1167 25.1919C82.227 26.5284 84.0159 27.2686 85.7431 27.0836C87.3675 26.9191 88.8685 25.891 89.6704 24.4722C91.0275 22.0665 90.8013 18.7971 88.9713 16.6998C87.8404 15.4044 86.031 14.767 84.3243 15.0754Z" fill="#CACAD2"/>
<path d="M107.23 13.4922C109.698 11.1892 113.502 10.4079 116.668 11.621C119.67 12.7519 121.583 15.61 122.549 18.5504C118.087 20.401 113.646 22.231 109.184 24.0815C109.801 25.2536 110.747 26.3228 112.021 26.7546C113.81 27.392 115.949 27.1658 117.45 25.9732C118.046 25.5209 118.519 24.9246 118.971 24.3489C120.102 25.1096 121.233 25.8499 122.364 26.6107C120.76 29.0164 118.067 30.7025 115.167 30.9698C111.96 31.3605 108.546 30.1268 106.47 27.6182C103.056 23.6703 103.385 17.0494 107.23 13.4922ZM109.431 17.2961C108.731 18.3037 108.444 19.5374 108.464 20.7505C111.446 19.5168 114.427 18.2831 117.409 17.0288C116.915 15.8773 115.723 15.1782 114.509 14.9932C112.556 14.6436 110.52 15.6923 109.431 17.2961Z" fill="#CACAD2"/>
</g>
<defs>
<clipPath id="clip0">
<rect width="122.549" height="40" fill="white"/>
</clipPath>
</defs>
</svg>
