<svg width="1440" height="506" viewBox="0 0 1440 506" fill="none" xmlns="http://www.w3.org/2000/svg">
<path opacity="0.5" fill-rule="evenodd" clip-rule="evenodd" d="M988.872 448.065C1021.53 502.851 1054.82 525.46 1089.14 528.679C1123.5 531.902 1159.15 515.713 1196.63 492.281C1214.11 481.354 1231.94 468.878 1250.21 456.104L1250.22 456.099L1250.64 455.803C1251.8 454.989 1252.97 454.175 1254.14 453.359C1273.77 439.638 1293.88 425.68 1314.53 413.058C1355.82 387.819 1399.32 367.865 1445.42 365.799L1445.39 367.26C1399.7 369.307 1356.5 389.086 1315.3 414.273C1294.7 426.865 1274.62 440.794 1254.99 454.517C1253.75 455.385 1252.51 456.253 1251.27 457.119L1251.07 457.26C1232.8 470.03 1214.93 482.533 1197.41 493.487C1159.89 516.943 1123.82 533.412 1088.88 530.135C1053.89 526.853 1020.28 503.806 987.523 448.852C954.86 394.053 918.915 356.48 879.58 330.641C840.246 304.802 797.489 290.674 751.164 282.811C704.829 274.945 654.942 273.35 601.342 272.567C592.94 272.445 584.447 272.342 575.863 272.238L575.852 272.238C529.69 271.68 480.886 271.091 429.399 267.191C331.529 259.777 236.198 208.526 156.833 147.558C77.4548 86.5789 13.9627 15.8131 -20.2317 -30.7617L-18.9525 -31.6544C15.1753 14.8297 78.5805 85.5014 157.847 146.394C237.126 207.297 332.186 258.351 429.626 265.732C481.059 269.628 529.806 270.217 575.968 270.775C584.558 270.879 593.059 270.982 601.472 271.105C655.072 271.887 705.069 273.483 751.535 281.37C798.012 289.259 840.973 303.446 880.511 329.418C920.047 355.39 956.125 393.125 988.872 448.065ZM1002.53 410.664C1035.18 465.45 1068.48 488.059 1102.79 491.278C1137.16 494.5 1172.8 478.312 1210.28 454.879C1227.76 443.954 1245.6 431.48 1263.86 418.708L1263.87 418.703L1263.87 418.698L1264.3 418.399L1265.97 417.233L1267.79 415.958C1287.42 402.236 1307.54 388.279 1328.19 375.657C1369.48 350.417 1412.97 330.464 1459.08 328.398L1459.04 329.859C1413.36 331.906 1370.16 351.685 1328.95 376.872C1308.36 389.463 1288.28 403.393 1268.64 417.116L1266.8 418.405L1264.96 419.692L1264.72 419.859C1246.46 432.629 1228.58 445.132 1211.06 456.086C1173.54 479.542 1137.48 496.011 1102.54 492.734C1067.55 489.452 1033.93 466.405 1001.18 411.451C968.517 356.652 932.571 319.079 893.237 293.24C853.903 267.401 811.146 253.273 764.821 245.41C718.486 237.544 668.599 235.949 614.998 235.166C606.599 235.044 598.109 234.941 589.528 234.837L589.509 234.837C543.347 234.279 494.543 233.69 443.056 229.789C345.186 222.376 249.855 171.125 170.49 110.156C91.1115 49.1778 27.6194 -21.5881 -6.57513 -68.1628L-5.29591 -69.0555C28.8319 -22.5715 92.2372 48.1003 171.503 108.993C250.782 169.896 345.843 220.95 443.283 228.331C494.715 232.227 543.462 232.816 589.624 233.374C598.215 233.478 606.716 233.581 615.128 233.704C668.729 234.486 718.725 236.081 765.191 243.969C811.668 251.858 854.63 266.045 894.167 292.017C933.704 317.989 969.782 355.724 1002.53 410.664ZM1016.19 373.263C1048.84 428.048 1082.13 450.658 1116.45 453.877C1150.82 457.099 1186.46 440.911 1223.94 417.478C1241.42 406.552 1259.26 394.076 1277.52 381.302L1277.53 381.297L1280.16 379.46L1281.45 378.557C1301.08 364.835 1321.2 350.878 1341.85 338.256C1383.14 313.016 1426.63 293.063 1472.73 290.996L1472.7 292.458C1427.02 294.505 1383.82 314.284 1342.61 339.471C1322.01 352.062 1301.93 365.992 1282.3 379.715L1280.51 380.969L1278.38 382.458C1260.12 395.228 1242.24 407.731 1224.72 418.684C1187.2 442.141 1151.14 458.609 1116.2 455.332C1081.21 452.051 1047.59 429.004 1014.84 374.05C982.174 319.251 946.228 281.678 906.894 255.839C867.56 230 824.803 215.872 778.478 208.009C732.143 200.143 682.256 198.547 628.655 197.765C620.256 197.643 611.767 197.54 603.185 197.436L603.166 197.436C557.004 196.878 508.2 196.288 456.713 192.388C358.843 184.975 263.512 133.724 184.147 72.7553C104.769 11.7766 41.2765 -58.9892 7.082 -105.564L8.36121 -106.457C42.4891 -59.9726 105.894 10.6992 185.161 71.592C264.44 132.495 359.5 183.549 456.94 190.93C508.372 194.826 557.119 195.415 603.281 195.973C611.872 196.077 620.373 196.18 628.785 196.303C682.386 197.085 732.382 198.68 778.848 206.568C825.325 214.457 868.287 228.644 907.824 254.616C947.361 280.588 983.439 318.323 1016.19 373.263ZM1130.11 416.476C1095.79 413.257 1062.5 390.648 1029.84 335.862C997.096 280.922 961.018 243.187 921.481 217.215C881.944 191.243 838.982 177.056 792.506 169.167C746.039 161.279 696.043 159.684 642.442 158.902C634.067 158.779 625.604 158.677 617.052 158.574L617.003 158.573L616.947 158.572L616.943 158.572L616.939 158.572C570.777 158.014 522.029 157.425 470.597 153.529C373.157 146.148 278.097 95.0936 198.818 34.1911C119.551 -26.7017 56.1462 -97.3735 22.0183 -143.858L20.7391 -142.965C54.9336 -96.39 118.426 -25.6242 197.804 35.3545C277.169 96.3234 372.5 147.574 470.37 154.987C521.856 158.887 570.659 159.477 616.82 160.035L616.823 160.035L616.823 160.035L616.825 160.035C625.412 160.139 633.908 160.242 642.312 160.364C695.913 161.147 745.8 162.742 792.135 170.608C838.46 178.471 881.217 192.599 920.551 218.438C959.885 244.277 995.831 281.85 1028.49 336.649C1061.25 391.603 1094.86 414.65 1129.85 417.931C1164.8 421.209 1200.86 404.74 1238.38 381.284C1255.9 370.33 1273.78 357.827 1292.04 345.057L1292.2 344.941L1293.59 343.967L1295.96 342.314C1315.59 328.591 1335.67 314.661 1356.27 302.07C1397.47 276.883 1440.67 257.104 1486.36 255.057L1486.39 253.596C1440.29 255.662 1396.8 275.615 1355.5 300.855C1334.86 313.477 1314.74 327.434 1295.11 341.156L1293.26 342.444L1291.61 343.603L1291.19 343.896L1291.18 343.901C1272.92 356.675 1255.08 369.151 1237.6 380.077C1200.12 403.51 1164.47 419.698 1130.11 416.476ZM1043.5 298.461C1076.16 353.246 1109.45 375.856 1143.77 379.075C1178.13 382.297 1213.77 366.109 1251.26 342.676C1268.73 331.752 1286.57 319.279 1304.83 306.508L1304.83 306.504L1304.84 306.499L1304.85 306.495C1306.15 305.583 1307.46 304.669 1308.76 303.755C1328.39 290.033 1348.51 276.076 1369.16 263.454C1410.45 238.214 1453.95 218.261 1500.05 216.194L1500.01 217.656C1454.33 219.703 1411.13 239.482 1369.93 264.669C1349.33 277.26 1329.25 291.19 1309.62 304.913C1308.31 305.826 1307.01 306.738 1305.7 307.649L1305.69 307.656C1287.43 320.426 1269.56 332.929 1252.04 343.882C1214.52 367.339 1178.45 383.807 1143.51 380.53C1108.52 377.249 1074.91 354.202 1042.15 299.248C1009.49 244.449 973.543 206.876 934.209 181.037C894.875 155.198 852.117 141.07 805.793 133.207C759.458 125.341 709.57 123.745 655.97 122.963C647.566 122.841 639.071 122.738 630.484 122.634L630.482 122.634L630.481 122.634L630.48 122.634L630.479 122.634C584.318 122.076 535.514 121.486 484.028 117.586C386.158 110.173 290.827 58.9223 211.461 -2.04666C132.083 -63.0254 68.5912 -133.791 34.3967 -180.366L35.6759 -181.259C69.8038 -134.775 133.209 -64.1028 212.475 -3.21004C291.754 57.6925 386.815 108.747 484.255 116.128C535.687 120.024 584.434 120.613 630.596 121.171C639.187 121.275 647.688 121.378 656.1 121.501C709.7 122.283 759.697 123.878 806.163 131.766C852.64 139.655 895.602 153.842 935.139 179.814C974.676 205.786 1010.75 243.521 1043.5 298.461ZM1157.42 341.673C1123.11 338.455 1089.81 315.845 1057.16 261.06C1024.41 206.119 988.332 168.385 948.796 142.413C909.259 116.441 866.297 102.254 819.82 94.3647C773.354 86.4772 723.357 84.8817 669.757 84.0994C661.345 83.9766 652.844 83.8738 644.253 83.77C598.091 83.2121 549.344 82.6229 497.912 78.727C400.471 71.3461 305.411 20.2914 226.132 -40.6112C146.866 -101.504 83.4607 -172.176 49.3328 -218.66L48.0536 -217.767C82.2481 -171.192 145.74 -100.426 225.118 -39.4478C304.484 21.5211 399.815 72.7718 497.685 80.1852C549.171 84.0852 597.975 84.675 644.137 85.2328L644.138 85.2329L644.139 85.2329L644.141 85.2329C652.728 85.3367 661.223 85.4394 669.627 85.562C723.227 86.3443 773.114 87.9401 819.45 95.8054C865.774 103.669 908.532 117.797 947.865 143.636C987.2 169.475 1023.15 207.048 1055.81 261.847C1088.56 316.801 1122.18 339.848 1157.17 343.129C1192.11 346.406 1228.17 329.938 1265.69 306.481C1283.21 295.528 1301.09 283.025 1319.35 270.254L1319.36 270.248L1319.52 270.139C1320.77 269.264 1322.02 268.388 1323.27 267.512C1342.91 253.788 1362.98 239.859 1383.58 227.268C1424.79 202.081 1467.99 182.302 1513.67 180.254L1513.71 178.793C1467.6 180.859 1424.11 200.813 1382.82 226.053C1362.17 238.675 1342.05 252.632 1322.42 266.354C1321.11 267.268 1319.81 268.182 1318.5 269.094L1318.5 269.098L1318.49 269.101C1300.23 281.874 1282.39 294.349 1264.91 305.275C1227.43 328.708 1191.79 344.896 1157.42 341.673Z" fill="url(#paint0_linear_4:283)"/>
<defs>
<linearGradient id="paint0_linear_4:283" x1="92.5024" y1="247.506" x2="1258.35" y2="461.829" gradientUnits="userSpaceOnUse">
<stop stop-color="#846CCA"/>
<stop offset="0.453125" stop-color="#215D71"/>
<stop offset="1" stop-color="#81782C"/>
</linearGradient>
</defs>
</svg>
